<svg xmlns="http://www.w3.org/2000/svg" viewBox="0 0 256 256"><defs><linearGradient id="g" x1="0" y1="0" x2="1" y2="1"><stop stop-color="#4be7ff"/><stop offset=".5" stop-color="#295bff"/><stop offset="1" stop-color="#a52dff"/></linearGradient></defs><path fill="url(#g)" d="M28 150c-10-58 31-108 100-117-36 18-59 42-67 67-11 35 6 66 42 82 42 19 88 10 125-14-24 43-75 69-127 61-39-6-67-29-73-79z"/><path fill="#050505" d="M61 125c10-34 44-59 93-74-17 9-28 23-29 37-1 18 16 30 38 34 24 5 49 1 70-7-29 31-72 48-116 41-30-5-49-16-56-31z"/><path fill="url(#g)" d="M145 101l48-17c25-9 42 4 43 25 1 25-18 46-45 54l-51 15 24-28 23-14-29-35  -13-17z"/><circle cx="194" cy="51" r="18" fill="url(#g)"/><path fill="url(#g)" d="M128 89l5 11 11 5-11 5-5 11-5-11-11-5 11-5z"/></svg>